<?xml version="1.0" encoding="UTF-8" standalone="no"?>
<svg
   xmlns:dc="http://purl.org/dc/elements/1.1/"
   xmlns:cc="http://creativecommons.org/ns#"
   xmlns:rdf="http://www.w3.org/1999/02/22-rdf-syntax-ns#"
   xmlns:svg="http://www.w3.org/2000/svg"
   xmlns="http://www.w3.org/2000/svg"
   xmlns:sodipodi="http://sodipodi.sourceforge.net/DTD/sodipodi-0.dtd"
   xmlns:inkscape="http://www.inkscape.org/namespaces/inkscape"
   width="180"
   height="180"
   viewBox="0 0 47.624999 47.625001"
   version="1.1"
   id="svg426"
   shape-rendering="crispEdges"
   inkscape:version="1.0.1 (c497b03c, 2020-09-10)"
   sodipodi:docname="geteduroam.svg">
  <defs
     id="defs420" />
  <sodipodi:namedview
     id="base"
     pagecolor="#ffffff"
     bordercolor="#666666"
     borderopacity="1.0"
     inkscape:pageopacity="0.0"
     inkscape:pageshadow="2"
     inkscape:zoom="2"
     inkscape:cx="86.838285"
     inkscape:cy="119.58728"
     inkscape:document-units="mm"
     inkscape:current-layer="layer1"
     inkscape:document-rotation="0"
     showgrid="true"
     units="px"
     inkscape:lockguides="false"
     guidetolerance="10000"
     objecttolerance="10000"
     inkscape:window-width="1584"
     inkscape:window-height="1226"
     inkscape:window-x="528"
     inkscape:window-y="56"
     inkscape:window-maximized="0">
    <inkscape:grid
       type="xygrid"
       id="grid442" />
  </sodipodi:namedview>
  <metadata
     id="metadata423">
    <rdf:RDF>
      <cc:Work
         rdf:about="">
        <dc:format>image/svg+xml</dc:format>
        <dc:type
           rdf:resource="http://purl.org/dc/dcmitype/StillImage" />
        <dc:title></dc:title>
      </cc:Work>
    </rdf:RDF>
  </metadata>
  <g
     inkscape:label="Layer 1"
     inkscape:groupmode="layer"
     id="layer1">
    <path
       style="fill:#000000;stroke:none;stroke-width:0.26458300000000001px;stroke-linecap:butt;stroke-linejoin:miter;stroke-opacity:1;fill-opacity:1"
       d="M 5.2916666,0 H 42.333333 c 0,0 5.291666,0 5.291666,5.2916666 0,5.2916664 0,29.1041664 0,29.1041664 0,0 0,13.229166 -13.229166,13.229166 -13.229167,0 -29.1041664,0 -29.1041664,0 0,0 -5.2916666,0 -5.2916666,-5.291666 C 0,37.041666 0,5.2916666 0,5.2916666 0,5.2916666 0,0 5.2916666,0 Z"
       id="path452" />
    <circle
       style="fill:#ffffff;fill-opacity:1;stroke:none;stroke-width:0.396058"
       id="path1277"
       cx="35.321873"
       cy="35.321877"
       r="7.2760415" />
    <path
       id="circle1287"
       style="fill-opacity:1;stroke:none;stroke-width:5.74269;stroke-opacity:1;fill-rule:evenodd;fill:#ffffff"
       d="M 133.5 28 A 105.5 105.5 0 0 0 28 133.5 A 105.5 105.5 0 0 0 28.523438 144 L 48.648438 144 A 85.500003 85.500003 0 0 1 48 133.5 A 85.500003 85.500003 0 0 1 133.5 48 A 85.500003 85.500003 0 0 1 143 48.529297 L 143 28.429688 A 105.5 105.5 0 0 0 133.5 28 z "
       transform="scale(0.26458333)" />
    <path
       id="circle1289"
       style="fill:#ffffff;fill-opacity:1;stroke:none;stroke-width:3.6198"
       d="M 133.27344 67 A 66.499996 66.499996 0 0 0 67 133.5 A 66.499996 66.499996 0 0 0 67.833984 144 L 87.175781 144 A 47.499998 47.499998 0 0 1 86 133.5 A 47.499998 47.499998 0 0 1 133.5 86 A 47.499998 47.499998 0 0 1 143 86.960938 L 143 67.683594 A 66.499996 66.499996 0 0 0 133.5 67 A 66.499996 66.499996 0 0 0 133.27344 67 z "
       transform="scale(0.26458333)" />
  </g>
</svg>
