<?xml version="1.0" encoding="UTF-8" standalone="no"?>
<svg version="1.1" viewBox="0 0 180 180" xmlns="http://www.w3.org/2000/svg" fill="#fff">
<rect width="180" height="180" fill="#276fbf"/>
<circle cx="133.5" cy="133.5" r="27.5" stroke-width="3.7796"/>
<path d="m133.5 28a105.5 105.5 0 0 0-105.5 105.5 105.5 105.5 0 0 0 0.52344 10.5h20.125a85.5 85.5 0 0 1-0.64844-10.5 85.5 85.5 0 0 1 85.5-85.5 85.5 85.5 0 0 1 9.5 0.5293v-20.1a105.5 105.5 0 0 0-9.5-0.42969z" fill-rule="evenodd"/>
<path d="m133.27 67a66.5 66.5 0 0 0-66.273 66.5 66.5 66.5 0 0 0 0.83398 10.5h19.342a47.5 47.5 0 0 1-1.1758-10.5 47.5 47.5 0 0 1 47.5-47.5 47.5 47.5 0 0 1 9.5 0.96094v-19.277a66.5 66.5 0 0 0-9.5-0.68359 66.5 66.5 0 0 0-0.22656 0z"/>
</svg>
